<svg width="50" height="48" viewBox="0 0 50 48" fill="none" xmlns="http://www.w3.org/2000/svg">
<g id="&#240;&#159;&#166;&#134; icon &#34;bell&#34;">
<path id="Vector" d="M40.3333 16.0616C40.3333 12.3322 38.718 8.75559 35.8422 6.11854C32.9667 3.48147 29.0667 2 25 2C20.9333 2 17.0333 3.48147 14.1577 6.11854C11.2821 8.75559 9.66667 12.3322 9.66667 16.0616C9.66667 32.4668 2 37.1539 2 37.1539H48C48 37.1539 40.3333 32.4668 40.3333 16.0616Z" stroke="#329CFE" stroke-width="3" stroke-linecap="round" stroke-linejoin="round"/>
<path id="Vector_2" d="M29.4208 43.8105C28.9716 44.4765 28.3268 45.0293 27.5507 45.4133C26.7748 45.7976 25.8952 46 24.9997 46C24.1043 46 23.2246 45.7976 22.4488 45.4133C21.6729 45.0293 21.0279 44.4765 20.5786 43.8105" stroke="#329CFE" stroke-width="3" stroke-linecap="round" stroke-linejoin="round"/>
</g>
</svg>
